<?xml version="1.0"?>
<svg id="Capa_1" data-name="Capa 1" xmlns="http://www.w3.org/2000/svg" viewBox="0 0 109.13 116.06">
  <g>
    <g>
      <path d="M16.46,76.86c-1.15-.52-2.49-.85-4-.98l-1.59-.14c-.95-.08-1.63-.33-2.04-.77s-.62-.94-.62-1.5c0-.47.11-.9.34-1.29.23-.39.57-.69,1.04-.91.46-.22,1.04-.33,1.72-.33.72,0,1.32.13,1.8.38s.85.6,1.09,1.02.37.89.37,1.4h4.54c0-1.34-.31-2.52-.94-3.53-.62-1.01-1.52-1.8-2.68-2.37-1.16-.57-2.56-.85-4.19-.85s-2.9.26-4.03.78c-1.14.52-2.02,1.26-2.65,2.23s-.95,2.12-.95,3.46c0,1.84.61,3.31,1.84,4.41,1.23,1.11,2.88,1.75,4.94,1.94l1.56.11c1.27.11,2.19.36,2.75.75.57.39.85.91.85,1.58,0,.53-.15,1-.45,1.41s-.75.72-1.33.95c-.59.23-1.32.34-2.19.34-.96,0-1.75-.14-2.36-.41s-1.05-.64-1.35-1.09c-.29-.45-.44-.95-.44-1.48H2.95c0,1.34.34,2.53,1.01,3.56.67,1.03,1.65,1.85,2.94,2.46,1.29.61,2.87.91,4.74.91,1.76,0,3.27-.27,4.54-.82,1.27-.55,2.25-1.32,2.94-2.33.69-1,1.04-2.17,1.04-3.49s-.33-2.38-.98-3.28c-.65-.9-1.56-1.61-2.71-2.13Z"></path>
      <rect x="23.38" y="67.62" width="4.66" height="20.72"></rect>
      <polygon points="44.44 79.26 43.9 79.26 39.16 67.62 32.75 67.62 32.75 88.34 37.01 88.34 37.01 72.45 41.8 84.14 46.23 84.14 51.05 72.32 51.05 88.34 55.65 88.34 55.65 67.62 49.12 67.62 44.44 79.26"></polygon>
      <path d="M77.36,70.4c-.93-1.02-2.08-1.84-3.46-2.46-1.38-.61-2.98-.92-4.8-.92s-3.44.31-4.81.92-2.53,1.43-3.46,2.46c-.94,1.02-1.64,2.16-2.1,3.42-.46,1.26-.7,2.53-.7,3.82v.62c0,1.17.23,2.38.68,3.62s1.14,2.39,2.04,3.46c.91,1.07,2.06,1.94,3.45,2.6s3.02.99,4.9.99,3.5-.33,4.9-.99,2.54-1.53,3.45-2.6c.91-1.07,1.59-2.22,2.04-3.46s.68-2.45.68-3.62v-.62c0-1.29-.24-2.56-.71-3.82-.47-1.26-1.17-2.4-2.1-3.42ZM75.02,80.54c-.29.79-.71,1.5-1.26,2.1-.55.61-1.22,1.08-2,1.42-.79.34-1.67.51-2.65.51s-1.86-.17-2.64-.51c-.78-.34-1.44-.81-2-1.42-.56-.61-.98-1.31-1.26-2.1-.28-.79-.43-1.65-.43-2.55,0-.96.14-1.85.43-2.65.28-.8.71-1.5,1.26-2.09.56-.59,1.22-1.04,2-1.36.78-.32,1.66-.48,2.64-.48s1.84.16,2.62.48c.79.32,1.46.78,2.02,1.36.56.59.98,1.28,1.28,2.09.29.8.44,1.69.44,2.65,0,.91-.15,1.76-.44,2.55Z"></path>
      <polygon points="97.67 67.62 97.67 84.57 97.27 84.57 89.46 67.62 81.83 67.62 81.83 88.34 86.14 88.34 86.14 71.4 86.54 71.4 94.35 88.34 102.04 88.34 102.04 67.62 97.67 67.62"></polygon>
    </g>
    <g>
      <polygon points="3.06 98.87 8.91 98.87 8.91 115.5 13.56 115.5 13.56 98.87 19.41 98.87 19.41 94.78 3.06 94.78 3.06 98.87"></polygon>
      <polygon points="34.53 103.04 25.82 103.04 25.82 94.78 21.16 94.78 21.16 115.5 25.82 115.5 25.82 107.12 34.53 107.12 34.53 115.5 39.21 115.5 39.21 94.78 34.53 94.78 34.53 103.04"></polygon>
      <rect x="42.74" y="94.78" width="4.66" height="20.72"></rect>
      <polygon points="66.81 111.72 66.41 111.72 58.61 94.78 50.97 94.78 50.97 115.5 55.29 115.5 55.29 98.55 55.68 98.55 63.49 115.5 71.18 115.5 71.18 94.78 66.81 94.78 66.81 111.72"></polygon>
      <polygon points="91.61 94.78 86.28 94.78 78.64 104.48 78.64 94.78 73.99 94.78 73.99 115.5 78.64 115.5 78.64 105.82 80.46 105.82 87.58 115.5 93.23 115.5 84.55 103.75 91.61 94.78"></polygon>
      <path d="M108.16,106.15c-.65-.9-1.56-1.61-2.71-2.13-1.15-.52-2.49-.85-4-.98l-1.59-.14c-.95-.08-1.63-.33-2.04-.77s-.62-.94-.62-1.5c0-.47.11-.9.34-1.29.23-.39.57-.69,1.04-.91.46-.22,1.04-.33,1.72-.33.72,0,1.32.13,1.8.38s.85.6,1.09,1.02.37.89.37,1.4h4.54c0-1.34-.31-2.52-.94-3.53-.62-1.01-1.52-1.8-2.68-2.37-1.16-.57-2.56-.85-4.19-.85s-2.9.26-4.03.78c-1.14.52-2.02,1.26-2.65,2.23s-.95,2.12-.95,3.46c0,1.84.61,3.31,1.84,4.41,1.23,1.11,2.88,1.75,4.94,1.94l1.56.11c1.27.11,2.19.36,2.75.75.57.39.85.91.85,1.58,0,.53-.15,1-.45,1.41s-.75.72-1.33.95c-.59.23-1.32.34-2.19.34-.96,0-1.75-.14-2.36-.41s-1.05-.64-1.35-1.09c-.29-.45-.44-.95-.44-1.48h-4.54c0,1.34.34,2.53,1.01,3.56.67,1.03,1.65,1.85,2.94,2.46,1.29.61,2.87.91,4.74.91,1.76,0,3.27-.27,4.54-.82,1.27-.55,2.25-1.32,2.94-2.33.69-1,1.04-2.17,1.04-3.49s-.33-2.38-.98-3.28Z"></path>
    </g>
  </g>
  <g>
    <path d="M40.36,55.51l-25.39-.03c-1.76,0-2.83-1.85-2.82-3.35v-5.8c0-1.59,1.18-3.32,2.96-3.32h23.08c1.9-.01,3.5-1.24,3.51-3.24l.04-9.09c0-1.42,1.33-2.88,2.74-2.88h6.61c1.51,0,2.76,1.53,2.76,3.03v10.37c.02,1.61-1.28,3.15-2.91,3.17l-4.92.05c-1.61.02-2.97,1.29-2.98,2.92v4.9c-.01,1.6-1,2.91-2.69,3.28Z"></path>
    <path d="M12.17,24.63c0,1.52-1.28,3.06-2.79,3.07l-6.03.06C1.48,27.78,0,26.42,0,24.52v-10.22c0-1.66,1.36-3.12,3-3.14l4.85-.05c1.62-.02,2.94-1.49,2.95-3.08l.05-5.05C10.86,1.42,12.24,0,13.85,0h24.9c1.71,0,2.95,1.67,2.94,3.22l-.02,6.36c0,1.35-1.3,2.9-2.78,2.9l-23.74.06c-1.76,0-2.98,1.66-2.98,3.29v8.81Z"></path>
    <path d="M33.12,30.62c0,1.98-1.57,3.4-3.44,3.4h-5.48c-1.74-.02-3.28-1.41-3.29-3.21v-6.15c-.01-1.95,1.71-3.31,3.57-3.29l5.63.06c1.71.02,3.01,1.7,3.01,3.35v5.83Z"></path>
  </g>
</svg>