<?xml version="1.0"?>

<svg fill="#FFFFFF" width="100%" height="100%" viewBox="0 0 290 61" version="1.1" xmlns="http://www.w3.org/2000/svg" xmlns:xlink="http://www.w3.org/1999/xlink" xml:space="preserve" xmlns:serif="http://www.serif.com/" style="fill-rule:evenodd;clip-rule:evenodd;stroke-linejoin:round;stroke-miterlimit:2;">
    <g>
        <path d="M90.91,18.09C89.76,17.57 88.42,17.24 86.91,17.11L85.32,16.97C84.37,16.89 83.69,16.64 83.28,16.2C82.87,15.76 82.66,15.26 82.66,14.7C82.66,14.23 82.77,13.8 83,13.41C83.23,13.02 83.57,12.72 84.04,12.5C84.5,12.28 85.08,12.17 85.76,12.17C86.48,12.17 87.08,12.3 87.56,12.55C88.04,12.8 88.41,13.15 88.65,13.57C88.89,13.99 89.02,14.46 89.02,14.97L93.56,14.97C93.56,13.63 93.25,12.45 92.62,11.44C92,10.43 91.1,9.64 89.94,9.07C88.78,8.5 87.38,8.22 85.75,8.22C84.12,8.22 82.85,8.48 81.72,9C80.58,9.52 79.7,10.26 79.07,11.23C78.44,12.2 78.12,13.35 78.12,14.69C78.12,16.53 78.73,18 79.96,19.1C81.19,20.21 82.84,20.85 84.9,21.04L86.46,21.15C87.73,21.26 88.65,21.51 89.21,21.9C89.78,22.29 90.06,22.81 90.06,23.48C90.06,24.01 89.91,24.48 89.61,24.89C89.31,25.3 88.86,25.61 88.28,25.84C87.69,26.07 86.96,26.18 86.09,26.18C85.13,26.18 84.34,26.04 83.73,25.77C83.12,25.5 82.68,25.13 82.38,24.68C82.09,24.23 81.94,23.73 81.94,23.2L77.4,23.2C77.4,24.54 77.74,25.73 78.41,26.76C79.08,27.79 80.06,28.61 81.35,29.22C82.64,29.83 84.22,30.13 86.09,30.13C87.85,30.13 89.36,29.86 90.63,29.31C91.9,28.76 92.88,27.99 93.57,26.98C94.26,25.98 94.61,24.81 94.61,23.49C94.61,22.17 94.28,21.11 93.63,20.21C92.98,19.31 92.07,18.6 90.92,18.08L90.91,18.09Z" style="fill-rule:nonzero;"></path>
        <rect x="97.84" y="8.86" width="4.66" height="20.72"></rect>
        <path d="M118.9,20.49L118.36,20.49L113.62,8.86L107.21,8.86L107.21,29.58L111.46,29.58L111.46,13.68L116.26,25.37L120.69,25.37L125.51,13.55L125.51,29.58L130.11,29.58L130.11,8.86L123.58,8.86L118.9,20.49Z" style="fill-rule:nonzero;"></path>
        <path d="M151.82,11.64C150.89,10.62 149.74,9.8 148.36,9.18C146.98,8.57 145.38,8.26 143.56,8.26C141.74,8.26 140.12,8.57 138.75,9.18C137.38,9.79 136.22,10.61 135.29,11.64C134.35,12.66 133.65,13.8 133.19,15.06C132.73,16.32 132.49,17.59 132.49,18.88L132.49,19.5C132.49,20.67 132.72,21.88 133.17,23.12C133.62,24.36 134.31,25.51 135.21,26.58C136.12,27.65 137.27,28.52 138.66,29.18C140.05,29.84 141.68,30.17 143.56,30.17C145.44,30.17 147.06,29.84 148.46,29.18C149.86,28.52 151,27.65 151.91,26.58C152.82,25.51 153.5,24.36 153.95,23.12C154.4,21.88 154.63,20.67 154.63,19.5L154.63,18.88C154.63,17.59 154.39,16.32 153.92,15.06C153.45,13.8 152.75,12.66 151.82,11.64ZM149.47,21.77C149.18,22.56 148.76,23.27 148.21,23.87C147.66,24.48 146.99,24.95 146.21,25.29C145.42,25.63 144.54,25.8 143.56,25.8C142.58,25.8 141.7,25.63 140.92,25.29C140.14,24.95 139.48,24.48 138.92,23.87C138.36,23.26 137.94,22.56 137.66,21.77C137.38,20.98 137.23,20.12 137.23,19.22C137.23,18.26 137.37,17.37 137.66,16.57C137.94,15.77 138.37,15.07 138.92,14.48C139.48,13.89 140.14,13.44 140.92,13.12C141.7,12.8 142.58,12.64 143.56,12.64C144.54,12.64 145.4,12.8 146.18,13.12C146.97,13.44 147.64,13.9 148.2,14.48C148.76,15.07 149.18,15.76 149.48,16.57C149.77,17.37 149.92,18.26 149.92,19.22C149.92,20.13 149.77,20.98 149.48,21.77L149.47,21.77Z" style="fill-rule:nonzero;"></path>
        <path d="M172.13,8.86L172.13,25.8L171.73,25.8L163.92,8.86L156.29,8.86L156.29,29.58L160.6,29.58L160.6,12.63L161,12.63L168.8,29.58L176.5,29.58L176.5,8.86L172.13,8.86Z" style="fill-rule:nonzero;"></path>
    </g>
    <g>
        <path d="M183.59,12.97L189.44,12.97L189.44,29.6L194.09,29.6L194.09,12.97L199.94,12.97L199.94,8.88L183.59,8.88L183.59,12.97Z" style="fill-rule:nonzero;"></path>
        <path d="M215.06,17.14L206.35,17.14L206.35,8.88L201.69,8.88L201.69,29.6L206.35,29.6L206.35,21.23L215.06,21.23L215.06,29.6L219.74,29.6L219.74,8.88L215.06,8.88L215.06,17.14Z" style="fill-rule:nonzero;"></path>
        <rect x="223.27" y="8.88" width="4.66" height="20.72"></rect>
        <path d="M247.34,25.83L246.94,25.83L239.14,8.88L231.5,8.88L231.5,29.6L235.82,29.6L235.82,12.66L236.21,12.66L244.02,29.6L251.71,29.6L251.71,8.88L247.34,8.88L247.34,25.83Z" style="fill-rule:nonzero;"></path>
        <path d="M272.14,8.88L266.81,8.88L259.17,18.59L259.17,8.88L254.52,8.88L254.52,29.6L259.17,29.6L259.17,19.92L260.99,19.92L268.11,29.6L273.76,29.6L265.08,17.85L272.14,8.88Z" style="fill-rule:nonzero;"></path>
        <path d="M288.68,20.25C288.03,19.35 287.12,18.64 285.97,18.12C284.82,17.6 283.48,17.27 281.97,17.14L280.38,17C279.43,16.92 278.75,16.67 278.34,16.23C277.93,15.79 277.72,15.29 277.72,14.73C277.72,14.26 277.83,13.83 278.06,13.44C278.29,13.05 278.63,12.75 279.1,12.53C279.56,12.31 280.14,12.2 280.82,12.2C281.54,12.2 282.14,12.33 282.62,12.58C283.1,12.83 283.47,13.18 283.71,13.6C283.95,14.02 284.08,14.49 284.08,15L288.62,15C288.62,13.66 288.31,12.48 287.68,11.47C287.06,10.46 286.16,9.67 285,9.1C283.84,8.53 282.44,8.25 280.81,8.25C279.18,8.25 277.91,8.51 276.78,9.03C275.64,9.55 274.76,10.29 274.13,11.26C273.5,12.23 273.18,13.38 273.18,14.72C273.18,16.56 273.79,18.03 275.02,19.13C276.25,20.24 277.9,20.88 279.96,21.07L281.52,21.18C282.79,21.29 283.71,21.54 284.27,21.93C284.84,22.32 285.12,22.84 285.12,23.51C285.12,24.04 284.97,24.51 284.67,24.92C284.37,25.33 283.92,25.64 283.34,25.87C282.75,26.1 282.02,26.21 281.15,26.21C280.19,26.21 279.4,26.07 278.79,25.8C278.18,25.53 277.74,25.16 277.44,24.71C277.15,24.26 277,23.76 277,23.23L272.46,23.23C272.46,24.57 272.8,25.76 273.47,26.79C274.14,27.82 275.12,28.64 276.41,29.25C277.7,29.86 279.28,30.16 281.15,30.16C282.91,30.16 284.42,29.89 285.69,29.34C286.96,28.79 287.94,28.02 288.63,27.01C289.32,26.01 289.67,24.84 289.67,23.52C289.67,22.2 289.34,21.14 288.69,20.24L288.68,20.25Z" style="fill-rule:nonzero;"></path>
    </g>
    <path d="M43.88,60.34L16.28,60.31C14.36,60.31 13.21,58.3 13.21,56.66L13.21,50.35C13.21,48.62 14.49,46.74 16.43,46.74L41.51,46.74C43.58,46.73 45.31,45.39 45.32,43.21L45.37,33.33C45.37,31.79 46.82,30.2 48.35,30.2L55.54,30.2C57.18,30.2 58.54,31.86 58.54,33.5L58.54,44.77C58.56,46.52 57.14,48.19 55.38,48.21L50.04,48.27C48.29,48.29 46.81,49.67 46.8,51.45L46.8,56.78C46.79,58.52 45.71,59.94 43.88,60.34Z" style="fill-rule:nonzero;"></path>
    <path d="M13.22,26.77C13.22,28.42 11.82,30.09 10.19,30.11L3.63,30.18C1.61,30.2 0,28.72 0,26.65L0,15.54C0,13.73 1.48,12.15 3.26,12.13L8.53,12.07C10.29,12.05 11.72,10.45 11.74,8.72L11.79,3.23C11.8,1.54 13.3,0 15.06,0L42.13,0C43.99,0 45.33,1.82 45.33,3.5L45.31,10.41C45.31,11.88 43.9,13.56 42.29,13.56L16.48,13.63C14.56,13.63 13.24,15.44 13.24,17.2L13.24,26.77L13.22,26.77Z" style="fill-rule:nonzero;"></path>
    <path d="M36,33.29C36,35.44 34.3,36.99 32.26,36.99L26.3,36.99C24.4,36.97 22.73,35.45 22.73,33.51L22.73,26.83C22.72,24.71 24.58,23.24 26.61,23.26L32.73,23.33C34.59,23.35 36,25.18 36,26.97L36,33.31L36,33.29Z" style="fill-rule:nonzero;"></path>
    <g transform="matrix(1,0,0,1,77.46,47.64)">
        <g transform="matrix(0.913973,0,0,0.913973,0.00256,-0.956219)">
            <text x="0px" y="0px" style="font-family:&#39;Montserrat-Regular&#39;, &#39;Montserrat&#39;, &#39;Helvetica Neue&#39;, Arial, sans-serif;font-size:14.88px;">AI g</text>
        </g>
    </g>
    <g transform="matrix(1,0,0,1,77.46,47.64)">
        <g transform="matrix(0.913973,0,0,0.913973,26.370687,-0.956219)">
            <text x="0px" y="0px" style="font-family:&#39;Montserrat-Regular&#39;, &#39;Montserrat&#39;, &#39;Helvetica Neue&#39;, Arial, sans-serif;font-size:14.88px;">o<tspan x="9.089px " y="0px ">v</tspan></text>
        </g>
    </g>
    <g transform="matrix(1,0,0,1,77.46,47.64)">
        <g transform="matrix(0.913973,0,0,0.913973,41.579201,-0.956219)">
            <text x="0px" y="0px" style="font-family:&#39;Montserrat-Regular&#39;, &#39;Montserrat&#39;, &#39;Helvetica Neue&#39;, Arial, sans-serif;font-size:14.88px;">e</text>
        </g>
    </g>
    <g transform="matrix(1,0,0,1,77.46,47.64)">
        <g transform="matrix(0.913973,0,0,0.913973,49.695283,-0.956219)">
            <text x="0px" y="0px" style="font-family:&#39;Montserrat-Regular&#39;, &#39;Montserrat&#39;, &#39;Helvetica Neue&#39;, Arial, sans-serif;font-size:14.88px;">r</text>
        </g>
    </g>
    <g transform="matrix(1,0,0,1,77.46,47.64)">
        <g transform="matrix(0.913973,0,0,0.913973,54.932349,-0.956219)">
            <text x="0px" y="0px" style="font-family:&#39;Montserrat-Regular&#39;, &#39;Montserrat&#39;, &#39;Helvetica Neue&#39;, Arial, sans-serif;font-size:14.88px;">nan</text>
        </g>
    </g>
    <g transform="matrix(1,0,0,1,77.46,47.64)">
        <g transform="matrix(0.913973,0,0,0.913973,81.16338,-0.956219)">
            <text x="0px" y="0px" style="font-family:&#39;Montserrat-Regular&#39;, &#39;Montserrat&#39;, &#39;Helvetica Neue&#39;, Arial, sans-serif;font-size:14.88px;">c</text>
        </g>
    </g>
    <g transform="matrix(1,0,0,1,77.46,47.64)">
        <g transform="matrix(0.913973,0,0,0.913973,88.584842,-0.956219)">
            <text x="0px" y="0px" style="font-family:&#39;Montserrat-Regular&#39;, &#39;Montserrat&#39;, &#39;Helvetica Neue&#39;, Arial, sans-serif;font-size:14.88px;">e</text>
        </g>
    </g>
    <g transform="matrix(1,0,0,1,77.46,47.64)">
        <g transform="matrix(0.913973,0,0,0.913973,100.201442,-0.956219)">
            <text x="0px" y="0px" style="font-family:&#39;Montserrat-Regular&#39;, &#39;Montserrat&#39;, &#39;Helvetica Neue&#39;, Arial, sans-serif;font-size:14.88px;">f</text>
        </g>
    </g>
    <g transform="matrix(1,0,0,1,77.46,47.64)">
        <g transform="matrix(0.913973,0,0,0.913973,104.533675,-0.956219)">
            <text x="0px" y="0px" style="font-family:&#39;Montserrat-Regular&#39;, &#39;Montserrat&#39;, &#39;Helvetica Neue&#39;, Arial, sans-serif;font-size:14.88px;">or</text>
        </g>
    </g>
    <g transform="matrix(1,0,0,1,77.46,47.64)">
        <g transform="matrix(0.913973,0,0,0.913973,121.826047,-0.956219)">
            <text x="0px" y="0px" style="font-family:&#39;Montserrat-Regular&#39;, &#39;Montserrat&#39;, &#39;Helvetica Neue&#39;, Arial, sans-serif;font-size:14.88px;">r</text>
        </g>
    </g>
    <g transform="matrix(1,0,0,1,77.46,47.64)">
        <g transform="matrix(0.913973,0,0,0.913973,126.989996,-0.956219)">
            <text x="0px" y="0px" style="font-family:&#39;Montserrat-Regular&#39;, &#39;Montserrat&#39;, &#39;Helvetica Neue&#39;, Arial, sans-serif;font-size:14.88px;">e</text>
        </g>
    </g>
    <g transform="matrix(1,0,0,1,77.46,47.64)">
        <g transform="matrix(0.913973,0,0,0.913973,134.905004,-0.956219)">
            <text x="0px" y="0px" style="font-family:&#39;Montserrat-Regular&#39;, &#39;Montserrat&#39;, &#39;Helvetica Neue&#39;, Arial, sans-serif;font-size:14.88px;">al de</text>
        </g>
    </g>
    <g transform="matrix(1,0,0,1,77.46,47.64)">
        <g transform="matrix(0.913973,0,0,0.913973,167.177397,-0.956219)">
            <text x="0px" y="0px" style="font-family:&#39;Montserrat-Regular&#39;, &#39;Montserrat&#39;, &#39;Helvetica Neue&#39;, Arial, sans-serif;font-size:14.88px;">c</text>
        </g>
    </g>
    <g transform="matrix(1,0,0,1,77.46,47.64)">
        <g transform="matrix(0.913973,0,0,0.913973,174.59886,-0.956219)">
            <text x="0px" y="0px" style="font-family:&#39;Montserrat-Regular&#39;, &#39;Montserrat&#39;, &#39;Helvetica Neue&#39;, Arial, sans-serif;font-size:14.88px;">isions</text>
        </g>
    </g>
</svg>