<?xml version="1.0"?>
<svg id="Capa_1" data-name="Capa 1" xmlns="http://www.w3.org/2000/svg" viewBox="0 0 259.92 34.93">
  <g>
    <g>
      <path d="M61.17,16.36c-1.15-.52-2.49-.85-4-.98l-1.59-.14c-.95-.08-1.63-.33-2.04-.77s-.62-.94-.62-1.5c0-.47.11-.9.34-1.29.23-.39.57-.69,1.04-.91.46-.22,1.04-.33,1.72-.33.72,0,1.32.13,1.8.38s.85.6,1.09,1.02.37.89.37,1.4h4.54c0-1.34-.31-2.52-.94-3.53-.62-1.01-1.52-1.8-2.68-2.37-1.16-.57-2.56-.85-4.19-.85s-2.9.26-4.03.78c-1.14.52-2.02,1.26-2.65,2.23s-.95,2.12-.95,3.46c0,1.84.61,3.31,1.84,4.41,1.23,1.11,2.88,1.75,4.94,1.94l1.56.11c1.27.11,2.19.36,2.75.75.57.39.85.91.85,1.58,0,.53-.15,1-.45,1.41s-.75.72-1.33.95c-.59.23-1.32.34-2.19.34-.96,0-1.75-.14-2.36-.41s-1.05-.64-1.35-1.09c-.29-.45-.44-.95-.44-1.48h-4.54c0,1.34.34,2.53,1.01,3.56.67,1.03,1.65,1.85,2.94,2.46,1.29.61,2.87.91,4.74.91,1.76,0,3.27-.27,4.54-.82,1.27-.55,2.25-1.32,2.94-2.33.69-1,1.04-2.17,1.04-3.49s-.33-2.38-.98-3.28c-.65-.9-1.56-1.61-2.71-2.13Z"></path>
      <rect x="68.09" y="7.12" width="4.66" height="20.72"></rect>
      <polygon points="89.15 18.75 88.61 18.75 83.88 7.12 77.46 7.12 77.46 27.84 81.72 27.84 81.72 11.94 86.52 23.64 90.94 23.64 95.77 11.81 95.77 27.84 100.37 27.84 100.37 7.12 93.84 7.12 89.15 18.75"></polygon>
      <path d="M122.07,9.9c-.93-1.02-2.08-1.84-3.46-2.46-1.38-.61-2.98-.92-4.8-.92s-3.44.31-4.81.92-2.53,1.43-3.46,2.46c-.94,1.02-1.64,2.16-2.1,3.42-.46,1.26-.7,2.53-.7,3.82v.62c0,1.17.23,2.38.68,3.62s1.14,2.39,2.04,3.46c.91,1.07,2.06,1.94,3.45,2.6s3.02.99,4.9.99,3.5-.33,4.9-.99,2.54-1.53,3.45-2.6c.91-1.07,1.59-2.22,2.04-3.46s.68-2.45.68-3.62v-.62c0-1.29-.24-2.56-.71-3.82-.47-1.26-1.17-2.4-2.1-3.42ZM119.73,20.03c-.29.79-.71,1.5-1.26,2.1-.55.61-1.22,1.08-2,1.42-.79.34-1.67.51-2.65.51s-1.86-.17-2.64-.51c-.78-.34-1.44-.81-2-1.42-.56-.61-.98-1.31-1.26-2.1-.28-.79-.43-1.65-.43-2.55,0-.96.14-1.85.43-2.65.28-.8.71-1.5,1.26-2.09.56-.59,1.22-1.04,2-1.36.78-.32,1.66-.48,2.64-.48s1.84.16,2.62.48c.79.32,1.46.78,2.02,1.36.56.59.98,1.28,1.28,2.09.29.8.44,1.69.44,2.65,0,.91-.15,1.76-.44,2.55Z"></path>
      <polygon points="142.38 7.12 142.38 24.06 141.98 24.06 134.18 7.12 126.54 7.12 126.54 27.84 130.86 27.84 130.86 10.89 131.25 10.89 139.06 27.84 146.75 27.84 146.75 7.12 142.38 7.12"></polygon>
    </g>
    <g>
      <polygon points="153.85 11.23 159.69 11.23 159.69 27.87 164.35 27.87 164.35 11.23 170.2 11.23 170.2 7.15 153.85 7.15 153.85 11.23"></polygon>
      <polygon points="185.32 15.41 176.6 15.41 176.6 7.15 171.95 7.15 171.95 27.87 176.6 27.87 176.6 19.49 185.32 19.49 185.32 27.87 190 27.87 190 7.15 185.32 7.15 185.32 15.41"></polygon>
      <rect x="193.53" y="7.15" width="4.66" height="20.72"></rect>
      <polygon points="217.59 24.09 217.2 24.09 209.39 7.15 201.76 7.15 201.76 27.87 206.07 27.87 206.07 10.92 206.47 10.92 214.27 27.87 221.97 27.87 221.97 7.15 217.59 7.15 217.59 24.09"></polygon>
      <polygon points="242.4 7.15 237.06 7.15 229.43 16.85 229.43 7.15 224.77 7.15 224.77 27.87 229.43 27.87 229.43 18.19 231.24 18.19 238.37 27.87 244.02 27.87 235.33 16.11 242.4 7.15"></polygon>
      <path d="M258.94,18.51c-.65-.9-1.56-1.61-2.71-2.13-1.15-.52-2.49-.85-4-.98l-1.59-.14c-.95-.08-1.63-.33-2.04-.77s-.62-.94-.62-1.5c0-.47.11-.9.34-1.29.23-.39.57-.69,1.04-.91.46-.22,1.04-.33,1.72-.33.72,0,1.32.13,1.8.38s.85.6,1.09,1.02.37.89.37,1.4h4.54c0-1.34-.31-2.52-.94-3.53-.62-1.01-1.52-1.8-2.68-2.37-1.16-.57-2.56-.85-4.19-.85s-2.9.26-4.03.78c-1.14.52-2.02,1.26-2.65,2.23s-.95,2.12-.95,3.46c0,1.84.61,3.31,1.84,4.41,1.23,1.11,2.88,1.75,4.94,1.94l1.56.11c1.27.11,2.19.36,2.75.75.57.39.85.91.85,1.58,0,.53-.15,1-.45,1.41s-.75.72-1.33.95c-.59.23-1.32.34-2.19.34-.96,0-1.75-.14-2.36-.41s-1.05-.64-1.35-1.09c-.29-.45-.44-.95-.44-1.48h-4.54c0,1.34.34,2.53,1.01,3.56.67,1.03,1.65,1.85,2.94,2.46,1.29.61,2.87.91,4.74.91,1.76,0,3.27-.27,4.54-.82,1.27-.55,2.25-1.32,2.94-2.33.69-1,1.04-2.17,1.04-3.49s-.33-2.38-.98-3.28Z"></path>
    </g>
  </g>
  <g>
    <path d="M25.39,34.93l-15.97-.02c-1.11,0-1.78-1.16-1.78-2.11v-3.65c0-1,.74-2.09,1.86-2.09h14.52c1.2,0,2.2-.78,2.21-2.04l.03-5.72c0-.89.84-1.81,1.73-1.81h4.16c.95,0,1.74.96,1.74,1.91v6.52c0,1.02-.81,1.98-1.83,1.99l-3.09.03c-1.01.01-1.87.81-1.87,1.84v3.08c0,1.01-.63,1.83-1.69,2.06Z"></path>
    <path d="M7.65,15.5c0,.96-.81,1.92-1.75,1.93l-3.8.04C.93,17.48,0,16.62,0,15.43v-6.43c0-1.05.86-1.96,1.89-1.98l3.05-.03c1.02-.01,1.85-.94,1.86-1.94l.03-3.18C6.83.89,7.7,0,8.72,0h15.67c1.08,0,1.85,1.05,1.85,2.02v4c-.02.85-.83,1.82-1.76,1.83l-14.94.04c-1.11,0-1.87,1.04-1.87,2.07v5.54Z"></path>
    <path d="M20.84,19.27c0,1.25-.99,2.14-2.17,2.14h-3.45c-1.1,0-2.07-.89-2.07-2.02v-3.87c0-1.23,1.07-2.08,2.25-2.07l3.54.04c1.08.01,1.89,1.07,1.9,2.11v3.67Z"></path>
  </g>
</svg>