<?xml version="1.0"?>
<svg fill="#FFFFFF" id="Capa_1" data-name="Capa 1" xmlns="http://www.w3.org/2000/svg" viewBox="0 0 155.46 160.19">
  <path d="M116.48,160.19l-73.26-.07c-5.09,0-8.15-5.33-8.15-9.68v-16.75c.01-4.59,3.4-9.57,8.55-9.57l66.59-.03c5.49,0,10.09-3.56,10.12-9.33l.12-26.24c.02-4.1,3.84-8.32,7.92-8.32h19.08c4.34,0,7.97,4.41,7.98,8.75l.04,29.92c0,4.66-3.74,9.09-8.44,9.14l-14.19.15c-4.64.05-8.59,3.73-8.59,8.43l-.03,14.15c0,4.61-2.86,8.4-7.74,9.46Z"></path>
  <path d="M35.11,71.07c0,4.39-3.71,8.82-8.04,8.86l-17.41.18C4.28,80.17,0,76.25,0,70.75l.02-29.48c0-4.8,3.92-9.01,8.64-9.06l13.98-.15c4.68-.05,8.48-4.31,8.52-8.9l.13-14.58C31.33,4.1,35.31,0,39.98,0l71.86.02c4.94,0,8.5,4.81,8.49,9.27l-.06,18.35c-.01,3.9-3.74,8.36-8.01,8.37l-68.52.18c-5.09.01-8.59,4.79-8.59,9.48l-.02,25.41Z"></path>
  <path d="M95.57,88.36c0,5.71-4.52,9.82-9.94,9.81l-15.83-.03c-5.03-.01-9.48-4.04-9.49-9.22l-.03-17.74c0-5.63,4.95-9.54,10.33-9.48l16.23.18c4.95.05,8.69,4.91,8.69,9.66l.02,16.82Z"></path>
</svg>